<?xml version="1.0" encoding="UTF-8"?>
<svg width="16px" height="16px" viewBox="0 0 16 16" version="1.1" xmlns="http://www.w3.org/2000/svg" xmlns:xlink="http://www.w3.org/1999/xlink">
    <!-- Generator: Sketch 43.1 (39012) - http://www.bohemiancoding.com/sketch -->
    <title>shopping cart</title>
    <desc>Created with Sketch.</desc>
    <defs></defs>
    <g id="Page-1" stroke="none" stroke-width="1" fill="none" fill-rule="evenodd">
        <g id="shopping-cart" fill-rule="nonzero" fill="#999999">
            <path d="M11.5555556,14.2222222 C11.5555556,15.2035556 12.3502222,16 13.3333333,16 C14.3146667,16 15.1111111,15.2035556 15.1111111,14.2222222 C15.1111111,13.2391111 14.3146667,12.4444444 13.3333333,12.4444444 C12.3502222,12.4444444 11.5555556,13.2391111 11.5555556,14.2222222 Z M2.66666667,14.2222222 C2.66666667,15.2035556 3.46222222,16 4.44444444,16 C5.42488889,16 6.22222222,15.2035556 6.22222222,14.2222222 C6.22222222,13.2391111 5.42488889,12.4444444 4.44444444,12.4444444 C3.46222222,12.4444444 2.66666667,13.2391111 2.66666667,14.2222222 Z M5.81955556,9.93066667 L15.6577778,7.12 C15.8453333,7.06577778 16,6.86311111 16,6.66666667 L16,1.77777778 L3.55555556,1.77777778 L3.55555556,0.355555556 C3.55555556,0.16 3.39466667,0 3.20088889,0 L0.354666667,0 C0.16,0 0,0.16 0,0.355555556 L0,1.77777778 L1.77777778,1.77777778 L3.47555556,9.73955556 L3.55555556,10.5777778 L3.55555556,12.0435556 C3.55555556,12.2382222 3.71555556,12.3991111 3.91111111,12.3991111 L15.6444444,12.3991111 C15.84,12.3991111 16,12.2373333 16,12.0435556 L16,10.6666667 L6.00177778,10.6666667 C4.97955556,10.6666667 4.95822222,10.1768889 5.81955556,9.93066667 Z" id="Shape"></path>
        </g>
    </g>
</svg>